<?xml version="1.0" encoding="utf-8"?>
<!-- Generator: Adobe Illustrator 22.0.0, SVG Export Plug-In . SVG Version: 6.00 Build 0)  -->
<svg version="1.0" id="Layer_1" xmlns="http://www.w3.org/2000/svg" xmlns:xlink="http://www.w3.org/1999/xlink" x="0px" y="0px"
	 viewBox="0 0 299.6 70" style="enable-background:new 0 0 299.6 70;" xml:space="preserve">
<style type="text/css">
	.st0{fill:#134B88;}
	.st1{fill-rule:evenodd;clip-rule:evenodd;fill:#FFFFFF;}
	.st2{fill-rule:evenodd;clip-rule:evenodd;fill:#134B88;}
	.st3{fill-rule:evenodd;clip-rule:evenodd;fill:#BBBDBD;}
	.st4{fill-rule:evenodd;clip-rule:evenodd;fill:#E0E0DF;}
	.st5{fill-rule:evenodd;clip-rule:evenodd;fill:#111517;}
	.st6{fill-rule:evenodd;clip-rule:evenodd;fill:#E6E6E5;}
	.st7{fill-rule:evenodd;clip-rule:evenodd;fill:#FDB71E;}
</style>
<g>
	<path class="st0" d="M90.1,5.9c3.2,0,5.8,1,7.8,2.9c2,2.1,3.1,5,3.1,8.9c0,3.6-0.9,6.5-2.7,8.6c-1.9,2.3-4.7,3.4-8.1,3.4H79.8V5.9
		H90.1z M89.7,25.3c1.7,0,3.1-0.5,4.1-1.6c1.2-1.2,1.8-3.1,1.8-5.5c0-2.5-0.5-4.5-1.5-5.7c-1.1-1.4-2.9-2.1-5.4-2.1H85v15H89.7z"/>
	<path class="st0" d="M105.9,14.5c1.6-1.7,3.8-2.5,6.5-2.5c2.7,0,4.9,0.8,6.5,2.5c1.6,1.7,2.4,3.9,2.4,6.6c0,2.7-0.8,4.9-2.4,6.6
		c-1.6,1.6-3.8,2.5-6.5,2.5c-2.7,0-4.9-0.8-6.5-2.5c-1.6-1.6-2.4-3.8-2.4-6.6C103.5,18.3,104.3,16.1,105.9,14.5 M109.1,24.9
		c0.7,1.2,1.8,1.7,3.3,1.7c2.8,0,4.2-1.8,4.2-5.5c0-0.7-0.1-1.4-0.2-2c-0.5-2.3-1.8-3.5-4-3.5c-0.8,0-1.5,0.2-2,0.5
		c-1.4,0.9-2.2,2.6-2.2,5.1C108.2,22.7,108.5,23.9,109.1,24.9"/>
	<path class="st0" d="M139.6,33.5c-1.5,1.8-4,2.7-7.4,2.7c-1.9,0-3.6-0.4-5-1.3c-1.6-1-2.5-2.4-2.6-4.2h4.7c0.4,1.6,1.6,2.4,3.5,2.4
		c2.5,0,3.8-1.4,3.8-4.2v-2.3h-0.1c-1,1.8-2.7,2.7-5.2,2.7c-2.5,0-4.4-0.9-5.6-2.6c-1.2-1.5-1.7-3.6-1.7-6.1c0-2.4,0.6-4.4,1.9-6
		c1.4-1.7,3.2-2.6,5.5-2.6c2.4,0,4.1,0.9,5.1,2.8h0.1v-2.3h4.5v16.2C141.1,30.6,140.6,32.3,139.6,33.5 M130.5,7.2
		c0.6,0.4,1.3,0.6,2.1,0.6c2.1,0,3.3-0.8,3.7-2.4h2.1c-0.4,3.3-2.4,4.9-5.9,4.9c-3.3,0-5-1.6-5.3-4.9h2.1
		C129.5,6.2,129.8,6.8,130.5,7.2 M135.5,24.2c0.7-0.9,1-2,1-3.3c0-1.6-0.3-2.8-0.9-3.7c-0.7-1.1-1.7-1.6-3.2-1.6
		c-1.3,0-2.3,0.5-2.9,1.5c-0.6,0.9-0.9,2-0.9,3.4c0,1.4,0.3,2.6,0.8,3.5c0.7,1.1,1.7,1.7,3,1.7C133.8,25.6,134.8,25.2,135.5,24.2"/>
	<path class="st0" d="M156.5,29.7v-2.4h-0.1c-1.1,1.9-2.9,2.8-5.3,2.8c-2.4,0-4.1-0.6-5-1.9c-0.8-1.1-1.3-2.8-1.3-5.1V12.5h4.7v9.8
		c0,1.3,0.2,2.3,0.5,2.9c0.5,0.9,1.3,1.3,2.5,1.3c1.4,0,2.4-0.5,3-1.5c0.4-0.8,0.7-1.9,0.7-3.5v-9.1h4.7v17.3H156.5z"/>
	<path class="st0" d="M186.3,5.9l8.9,23.8h-5.4l-1.8-5.3h-8.9l-1.9,5.3h-5.3l9-23.8H186.3z M186.6,20.5l-3-8.8h-0.1l-3.1,8.8H186.6z
		"/>
	<polygon class="st0" points="202,5.9 202,18.7 208,12.5 213.6,12.5 207.1,18.8 214.3,29.7 208.6,29.7 203.8,22 202,23.8 202,29.7 
		197.2,29.7 197.2,5.9 	"/>
	<path class="st0" d="M228.2,27.5c-1,1.8-2.8,2.6-5.2,2.6c-1.3,0-2.4-0.3-3.4-0.8c-1.5-0.7-2.6-1.9-3.3-3.6c-0.7-1.4-1-3.1-1-4.9
		c0-2.5,0.6-4.5,1.9-6.2c1.4-1.8,3.3-2.7,5.7-2.7c2.3,0,4,0.9,5.1,2.6h0.1V5.9h4.7v23.8h-4.6L228.2,27.5L228.2,27.5z M227.4,17.2
		c-0.7-1.1-1.8-1.7-3.2-1.7c-1.4,0-2.5,0.6-3.3,1.7c-0.6,1-0.9,2.2-0.9,3.8c0,1.5,0.3,2.7,0.9,3.7c0.8,1.2,1.8,1.8,3.2,1.8
		c2.7,0,4.1-1.9,4.1-5.6C228.3,19.4,228,18.2,227.4,17.2"/>
	<path class="st0" d="M244.5,26.6c0.8,0,1.5-0.2,2.2-0.6c0.8-0.4,1.3-1,1.5-1.7h4.2c-1.2,3.9-3.9,5.8-8.1,5.8
		c-2.7,0-4.9-0.8-6.4-2.5c-1.6-1.7-2.4-3.9-2.4-6.5c0-1.3,0.2-2.5,0.6-3.6c0.6-1.7,1.7-3.1,3.2-4c1.5-1,3.1-1.5,5-1.5
		c1.5,0,2.8,0.3,3.8,0.8c1.6,0.9,2.9,2.2,3.7,4c0.7,1.6,1,3.4,0.9,5.4h-12.5C240.4,25.2,241.8,26.6,244.5,26.6 M244.2,15.6
		c-1.1,0-2.1,0.3-2.8,1c-0.7,0.7-1.1,1.6-1.2,2.7h7.7C247.6,16.8,246.3,15.6,244.2,15.6"/>
	<path class="st0" d="M260.1,12.5v2.4h0.1c1.2-1.9,2.9-2.9,5.3-2.9c2.4,0,4,0.6,5,1.9c0.8,1.1,1.3,2.8,1.3,5.2v10.6H267V20
		c0-1.3-0.2-2.3-0.5-2.9c-0.5-0.9-1.3-1.3-2.5-1.3c-1.4,0-2.4,0.5-3,1.5c-0.4,0.8-0.7,1.9-0.7,3.5v9.1h-4.7V12.5H260.1z"/>
	<path class="st0" d="M275.5,5.9h4.7v3.9h-4.7V5.9z M280.2,29.7h-4.7V12.5h4.7V29.7z"/>
	<polygon class="st0" points="291.9,16 283.6,16 283.6,12.5 298.1,12.5 298.1,16 289.2,26.2 298.8,26.2 298.8,29.7 282.9,29.7 
		282.9,26.2 	"/>
	<path class="st0" d="M97.2,62.5c-1.7,1.5-4.2,2.3-7.4,2.3c-6.7,0-10-3.1-10-9.4V40.7H85v14.6c0,1.6,0.3,2.7,0.9,3.5
		c0.8,1.1,2.1,1.6,4,1.6c1.8,0,3-0.4,3.8-1.2c0.7-0.8,1.1-2.1,1.1-3.9V40.7h5.1v14.6C99.9,58.5,99,60.9,97.2,62.5 M88.6,38.1h-4.4
		v-3.9h4.4V38.1z M95.4,38.1H91v-3.9h4.4V38.1z"/>
	<path class="st0" d="M108.3,47.2v2.4h0.1c1.1-1.9,2.9-2.8,5.2-2.8c2.3,0,4,0.6,5,1.9c0.8,1.1,1.3,2.8,1.3,5.1v10.5h-4.7v-9.6
		c0-1.3-0.2-2.3-0.5-2.9c-0.5-0.9-1.3-1.3-2.5-1.3c-1.4,0-2.4,0.5-3,1.5c-0.4,0.7-0.7,1.9-0.7,3.4v8.9h-4.7v-17H108.3z"/>
	<path class="st0" d="M123.5,40.7h4.7v3.9h-4.7V40.7z M128.2,64.2h-4.7v-17h4.7V64.2z"/>
	<polygon class="st0" points="136.1,64.2 130.2,47.2 135.2,47.2 138.8,58.8 138.8,58.8 142.4,47.2 147.1,47.2 141.3,64.2 	"/>
	<path class="st0" d="M157.1,61.2c0.8,0,1.5-0.2,2.2-0.6c0.8-0.4,1.3-1,1.5-1.6h4.1c-1.2,3.8-3.9,5.7-8,5.7c-2.7,0-4.8-0.8-6.4-2.5
		c-1.6-1.6-2.3-3.8-2.3-6.5c0-1.3,0.2-2.5,0.6-3.6c0.6-1.7,1.7-3,3.1-4c1.5-1,3.1-1.5,4.9-1.5c1.5,0,2.7,0.3,3.8,0.8
		c1.6,0.9,2.8,2.2,3.6,3.9c0.7,1.6,1,3.4,0.9,5.4h-12.3C153,59.7,154.4,61.2,157.1,61.2 M156.8,50.3c-1.1,0-2,0.3-2.7,1
		c-0.7,0.6-1.1,1.5-1.2,2.7h7.6C160,51.5,158.8,50.3,156.8,50.3"/>
	<path class="st0" d="M172.4,47.2v3.2h0.1c0.4-1.1,1.2-1.9,2.2-2.6c1-0.7,2.1-1,3.3-1c0.3,0,0.6,0.1,1,0.2v4.4
		c-0.5-0.1-1.1-0.2-1.7-0.2c-3.1,0-4.6,1.8-4.6,5.5v7.7h-4.7v-17H172.4z"/>
	<path class="st0" d="M185.5,60.9c0.6,0.5,1.5,0.7,2.5,0.7c0.8,0,1.5-0.2,2-0.5c0.7-0.4,1-0.9,1-1.7c0-0.8-0.7-1.4-2.2-1.9
		c-0.4-0.1-1.4-0.4-3.1-0.8c-1.6-0.4-2.8-0.8-3.6-1.3c-1.2-0.8-1.8-1.8-1.8-3.2c0-3.6,2.5-5.5,7.4-5.5c2.1,0,3.8,0.4,5,1.2
		c1.5,0.9,2.4,2.4,2.5,4.3h-4.4c-0.1-1.5-1.2-2.3-3.2-2.3c-1.7,0-2.6,0.5-2.6,1.6c0,0.7,0.6,1.3,1.7,1.6c1.6,0.4,2.8,0.7,3.6,0.9
		c1.7,0.4,2.9,0.9,3.7,1.4c1.1,0.8,1.7,1.9,1.7,3.4c0,2.1-0.8,3.6-2.4,4.6c-1.3,0.8-3.1,1.3-5.3,1.3c-2.2,0-4-0.4-5.4-1.3
		c-1.6-1-2.5-2.6-2.6-4.7h4.5C184.4,59.6,184.8,60.4,185.5,60.9"/>
	<path class="st0" d="M198.6,40.7h4.7v3.9h-4.7V40.7z M203.3,64.2h-4.7v-17h4.7V64.2z"/>
	<path class="st0" d="M216.4,47.2v3.1h-3.4v8.4c0,0.8,0.1,1.3,0.4,1.6c0.3,0.3,0.8,0.4,1.6,0.4c0.5,0,1,0,1.5-0.1v3.6
		c-0.7,0.1-1.6,0.2-2.7,0.2c-1.7,0-2.9-0.2-3.8-0.7c-1.1-0.6-1.6-1.7-1.6-3.3V50.3h-2.8v-3.1h2.8v-5.1h4.7v5.1H216.4z"/>
	<path class="st0" d="M226.6,61.2c0.8,0,1.5-0.2,2.2-0.6c0.8-0.4,1.3-1,1.5-1.6h4.1c-1.2,3.8-3.9,5.7-8,5.7c-2.7,0-4.8-0.8-6.4-2.5
		c-1.6-1.6-2.3-3.8-2.3-6.5c0-1.3,0.2-2.5,0.6-3.6c0.6-1.7,1.7-3,3.1-4c1.5-1,3.1-1.5,4.9-1.5c1.5,0,2.7,0.3,3.8,0.8
		c1.6,0.9,2.8,2.2,3.6,3.9c0.7,1.6,1,3.4,0.9,5.4h-12.3C222.6,59.7,224,61.2,226.6,61.2 M226.3,50.3c-1.1,0-2,0.3-2.7,1
		c-0.7,0.6-1.1,1.5-1.2,2.7h7.6C229.6,51.5,228.4,50.3,226.3,50.3"/>
	<path class="st0" d="M242.2,60.9c0.6,0.5,1.5,0.7,2.5,0.7c0.8,0,1.5-0.2,2-0.5c0.7-0.4,1-0.9,1-1.7c0-0.8-0.7-1.4-2.2-1.9
		c-0.4-0.1-1.4-0.4-3.1-0.8c-1.6-0.4-2.8-0.8-3.6-1.3c-1.2-0.8-1.8-1.8-1.8-3.2c0-3.6,2.5-5.5,7.4-5.5c2.1,0,3.8,0.4,5,1.2
		c1.5,0.9,2.4,2.4,2.5,4.3h-4.5c-0.1-1.5-1.2-2.3-3.2-2.3c-1.7,0-2.6,0.5-2.6,1.6c0,0.7,0.6,1.3,1.7,1.6c1.6,0.4,2.8,0.7,3.6,0.9
		c1.7,0.4,2.9,0.9,3.7,1.4c1.1,0.8,1.7,1.9,1.7,3.4c0,2.1-0.8,3.6-2.4,4.6c-1.3,0.8-3.1,1.3-5.3,1.3c-2.2,0-4-0.4-5.4-1.3
		c-1.6-1-2.5-2.6-2.6-4.7h4.5C241.1,59.6,241.5,60.4,242.2,60.9"/>
	<path class="st0" d="M255.3,40.7h4.7v3.9h-4.7V40.7z M260,64.2h-4.7v-17h4.7V64.2z"/>
</g>
<g>
	<g>
		<path class="st1" d="M35.1,69.2c18.7,0,34-15.3,34-34c0-18.7-15.3-34-34-34c-18.7,0-34,15.3-34,34C1.1,53.9,16.4,69.2,35.1,69.2z"
			/>
		<path class="st0" d="M35.1,69.6c-18.9,0-34.4-15.4-34.4-34.4c0-19,15.4-34.4,34.4-34.4c19,0,34.4,15.4,34.4,34.4
			C69.5,54.1,54.1,69.6,35.1,69.6z M35.1,1.5C16.6,1.5,1.5,16.6,1.5,35.2c0,18.5,15.1,33.6,33.6,33.6c18.5,0,33.6-15.1,33.6-33.6
			C68.7,16.6,53.7,1.5,35.1,1.5z"/>
	</g>
	<path class="st2" d="M35.1,2.7c17.9,0,32.4,14.6,32.4,32.4C67.6,53,53,67.6,35.1,67.6C17.3,67.6,2.7,53,2.7,35.2
		C2.7,17.3,17.3,2.7,35.1,2.7L35.1,2.7z M35.1,8.7C20.6,8.7,8.7,20.6,8.7,35.2c0,14.6,11.9,26.5,26.4,26.5
		c14.6,0,26.5-11.9,26.5-26.5C61.6,20.6,49.7,8.7,35.1,8.7z"/>
	<g>
		<path class="st3" d="M35.1,60C48.8,60,60,48.9,60,35.2c0-13.7-11.2-24.8-24.8-24.8c-13.6,0-24.8,11.1-24.8,24.8
			C10.3,48.9,21.5,60,35.1,60z"/>
		<path class="st0" d="M35.1,60.4c-13.9,0-25.2-11.3-25.2-25.2C9.9,21.3,21.2,10,35.1,10C49,10,60.3,21.3,60.3,35.2
			C60.3,49.1,49,60.4,35.1,60.4z M35.1,10.7c-13.5,0-24.4,11-24.4,24.4c0,13.5,11,24.5,24.4,24.5c13.5,0,24.5-11,24.5-24.5
			C59.6,21.7,48.6,10.7,35.1,10.7z"/>
	</g>
	<path class="st1" d="M35.1,59C48.3,59,59,48.3,59,35.2C59,22,48.3,11.3,35.1,11.3C22,11.3,11.3,22,11.3,35.2
		C11.3,48.3,22,59,35.1,59z"/>
	<g>
		<path class="st4" d="M29.4,55.3v-2h-0.5v-0.8l1.5-0.2v3H29.4L29.4,55.3z M31.8,52.3L31.8,52.3l0.2,0h0.1h1h0.1l0.1,0h0.1l0.1,0
			l0.1,0l0.1,0.1l0.1,0l0.1,0l0.1,0.1l0.1,0.1l0,0.1l0,0.1l0,0.1l0,0.1v0.1l0,0.1v0.3l0,0.2l0,0.2l0,0.2L34,54.3l-0.1,0.1l-0.1,0.2
			l-0.1,0.1l-0.1,0.1l-0.1,0.1l-0.1,0l-0.1,0l-0.1,0.1l-0.1,0l-0.1,0.1l-0.1,0l-0.1,0l-0.1,0l-0.1,0h-0.1l-0.1,0h-0.1l-0.1,0h-0.1
			h-0.1h-0.1h0l0,0h0l0,0h0l0,0h0l0,0h0l-0.1,0l-0.8-0.9h0.7l0.2,0h0.2h0.1l0.1,0h-0.1h-0.2H32h-0.1l-0.1,0l-0.1,0l-0.1,0l-0.1,0
			l-0.1,0l-0.1-0.1l0-0.1L31.1,54l-0.1-0.1l0-0.1l0-0.1l0-0.1v-0.1v-0.3v-0.1l0-0.1l0-0.1l0-0.1l0.1-0.1l0-0.1l0-0.1l0.1,0l0.1-0.1
			l0.1,0l0.1,0l0.1,0L31.8,52.3L31.8,52.3z M32.9,53.4L32.9,53.4h0.2h0v0v-0.1v-0.1v0h0h0h0H33h-0.1h-0.7h0h-0.1h-0.1h0h0l0,0v0v0.1
			v0h0l0,0h0.1h0.1h0.1h0.1h0h0.1h0h0.1h0.1h0h0.1L32.9,53.4L32.9,53.4L32.9,53.4z M35.2,55.3l1.3-2h-0.9v0.6l-1-0.2v-1.3h3.2V53
			l-1.4,2.2H35.2L35.2,55.3z M38.9,52.3L38.9,52.3l0.2,0h0.1h1h0.1l0.1,0h0.1l0.1,0l0.1,0l0.1,0.1l0.1,0l0.1,0l0.1,0.1l0.1,0.1
			l0,0.1l0,0.1l0,0.1l0,0.1v0.1v0.1v0.3v0.2l0,0.2l-0.1,0.2l0,0.2l-0.1,0.1L41,54.6l-0.1,0.1l-0.1,0.1l-0.1,0.1l-0.1,0l-0.1,0
			l-0.1,0.1l-0.1,0l-0.1,0.1l-0.1,0l-0.1,0l-0.1,0l-0.1,0h-0.1l-0.1,0h-0.1l-0.1,0h-0.1h-0.1h-0.1l0,0h0l0,0h0l0,0h0l0,0h0h0l-0.1,0
			l-0.7-0.9H39l0.2,0h0.2h0.2l0.1,0h-0.1h-0.2h-0.1H39l-0.1,0l-0.1,0l-0.1,0l-0.1,0l-0.1,0l-0.1-0.1l-0.1-0.1L38.3,54l-0.1-0.1
			l-0.1-0.1l0-0.1v-0.1v-0.1v-0.3v-0.1V53l0-0.1l0.1-0.1l0-0.1l0.1-0.1l0.1-0.1l0.1,0l0.1-0.1l0.1,0l0.1,0l0.1,0L38.9,52.3
			L38.9,52.3z M40.1,53.4L40.1,53.4h0.1h0.1v0v-0.1l0-0.1v0h0h0h0h-0.1h-0.1h-0.7h-0.1h-0.1h0h0h0l0,0v0v0.1v0l0,0l0.1,0h0h0.1h0.1
			h0.1h0.1h0.1h0.1h0.1h0.1h0.1h0L40.1,53.4L40.1,53.4z"/>
	</g>
	<path class="st2" d="M29.6,55.1v-1.9h-0.5v-0.5l1.2-0.2v2.6H29.6L29.6,55.1z M32.8,54.2L32.8,54.2h-0.2h-0.1l-0.1,0h-0.1h0h-0.1
		h-0.1h-0.1l-0.2,0h-0.1l-0.1,0h-0.1l-0.1,0l-0.1-0.1l-0.1,0l0,0L31.3,54l-0.1-0.1l-0.1-0.1l0-0.1v-0.1l0-0.1v-0.1v-0.3v-0.1l0-0.1
		v-0.1l0-0.1l0-0.1l0.1-0.1l0-0.1l0,0l0.1,0l0.1,0l0.1,0l0.1,0h0.1l0.1,0H32h0.1h1h0.1h0.1l0.1,0l0.1,0l0.1,0l0.1,0l0.1,0l0,0.1
		l0.1,0l0,0.1l0,0.1l0,0.1l0,0.1v0.1l0,0.1v0.1v0.3v0.2l0,0.2l-0.1,0.2l-0.1,0.1l-0.1,0.1l-0.1,0.1l-0.1,0.1l-0.1,0.1l-0.1,0.1
		l-0.1,0.1l-0.1,0l-0.1,0l-0.1,0l-0.1,0L33,55l-0.1,0h-0.1l-0.1,0l-0.1,0h-0.1l-0.1,0h-0.1h-0.1h-0.1h-0.1h0l0,0h0l0,0l0,0h0l0,0h0
		l0,0h0l0,0h-0.1l-0.5-0.6h0.3H32h0.2l0.2,0h0.2l0.1,0l0.1,0l0.1,0l0.1,0l0.1,0l0.1-0.1l0.1-0.1l0.1,0l0-0.1l0.1-0.1v0l0,0h-0.1H33
		l-0.1,0H32.8L32.8,54.2L32.8,54.2z M33.3,53.2L33.3,53.2L33.3,53.2L33.3,53.2L33.3,53.2l-0.1-0.1h0h-0.1l0,0H33H33h-0.1h-0.7h-0.1
		h-0.1h0h0l0,0h0l0,0l0,0h0v0l0,0l0,0v0v0v0v0v0.1v0v0v0v0l0,0l0,0h0v0h0l0,0h0h0.1h0l0.1,0h0h0.1h0.1h0.1h0h0.1h0.1l0,0h0.1h0.1
		h0.1H33H33l0.1,0h0.1h0.1h0.1l0,0v0l0,0l0,0v0l0,0l0,0l0,0v0l0,0v-0.1v-0.1v-0.1L33.3,53.2L33.3,53.2L33.3,53.2z M35.5,55.1l1.3-2
		h-1.4v0.5l-0.7-0.1v-1h2.8V53l-1.3,2.1H35.5L35.5,55.1z M40,54.2L40,54.2h-0.1h-0.1l-0.1,0h-0.1h-0.1h-0.1h-0.1h-0.2l-0.1,0h-0.1
		l-0.1,0h-0.1l-0.1,0l-0.1-0.1l-0.1,0l-0.1,0L38.5,54l0-0.1l0-0.1l0-0.1l0-0.1v-0.1l0-0.1v-0.3l0-0.1V53l0-0.1l0-0.1l0-0.1l0-0.1
		l0.1-0.1l0.1,0l0,0l0.1,0l0.1,0l0.1,0H39l0.1,0h0.1h0.1h1h0.1h0.1l0.1,0l0.1,0l0.1,0l0.1,0l0,0l0.1,0.1l0.1,0l0,0.1l0,0.1l0.1,0.1
		V53l0,0.1v0.1v0.1v0.3v0.2l0,0.2l0,0.2L41,54.3L41,54.4l-0.1,0.1l-0.1,0.1l-0.1,0.1l-0.1,0.1l-0.1,0.1l-0.1,0l-0.1,0l-0.1,0l-0.1,0
		l-0.1,0l-0.1,0H40l-0.1,0l-0.1,0h-0.1l-0.1,0h-0.1h-0.1h-0.1h0l0,0h0l0,0h0l0,0l0,0h0l0,0h0l0,0h0h0l-0.5-0.6H39h0.2h0.2l0.2,0h0.1
		l0.1,0l0.1,0l0.1,0l0.1,0l0.1,0l0-0.1l0.1-0.1l0.1,0l0.1-0.1l0.1-0.1v0l-0.1,0h-0.1h-0.1l-0.1,0H40L40,54.2L40,54.2z M40.4,53.2
		L40.4,53.2L40.4,53.2L40.4,53.2L40.4,53.2l-0.1-0.1h-0.1h0l0,0h-0.1h-0.1h-0.1h-0.7h-0.1h-0.1h0h-0.1l0,0h0h0l0,0l0,0v0h0v0v0l0,0
		v0v0v0.1v0v0l0,0v0v0h0l0,0l0,0l0,0l0.1,0h0h0.1h0l0.1,0h0.1h0.1h0.1h0.1h0.1h0.1h0.1l0.1,0h0.1h0h0.1h0.1h0.1l0.1,0h0.1h0.1h0.1
		l0,0l0,0l0,0l0,0v0l0,0l0,0l0,0v0l0,0v-0.1l0-0.1v-0.1L40.4,53.2L40.4,53.2z"/>
	<path class="st5" d="M15.9,38.5l6.4,11.1L15.9,38.5z"/>
	<path class="st6" d="M38.9,35.2l2.2,3.8l2.2-3.8H38.9L38.9,35.2z M43.4,35.2l1.6-2.7h-7.6l1.6,2.7H43.4L43.4,35.2z M35.7,29.6
		l1.6,2.7H45l1.6-2.7H35.7L35.7,29.6z M48.2,26.9H34.1l1.6,2.7h10.9L48.2,26.9L48.2,26.9z M46.6,24.1H23.6L22,26.8h26.2L46.6,24.1
		L46.6,24.1z M23.6,24h23L45,21.3H25.2L23.6,24L23.6,24z M43.4,18.5H26.8l-1.6,2.7H45L43.4,18.5L43.4,18.5z M26.9,18.4h16.5
		l-1.6-2.7H28.4L26.9,18.4z"/>
	<polygon class="st6" points="41.2,37.9 40.6,37.9 40.6,37.9 29.7,37.9 36.1,26.9 22,26.9 15.3,38.5 22,50.2 48.2,50.2 55,38.5 
		48.3,26.9 47.6,26.9 	"/>
	<path class="st2" d="M39.9,35.8h2.4l-1.2,2.1L39.9,35.8L39.9,35.8z M43.1,34.6h-3.9L38.3,33H44L43.1,34.6L43.1,34.6z M36.7,30.2
		h8.9l-0.9,1.6h-7.1L36.7,30.2L36.7,30.2z M47.2,27.4L46.3,29H36l-0.9-1.6H47.2L47.2,27.4z M46.3,24.7H23.9L23,26.2h24.2L46.3,24.7
		L46.3,24.7z M24.6,23.4h21l-0.9-1.6H25.5L24.6,23.4L24.6,23.4z M43.1,19.1h-16l-0.9,1.6H44L43.1,19.1L43.1,19.1z M27.9,17.8h14.5
		l-0.9-1.6H28.7L27.9,17.8z"/>
	<polygon class="st7" points="47.9,27.4 47.9,27.4 41.5,38.5 41.5,38.5 41.5,38.5 28.7,38.5 28.7,38.5 28.7,38.5 35.1,27.4 
		22.3,27.4 15.9,38.5 22.3,49.6 47.9,49.6 54.3,38.5 	"/>
	<path class="st1" d="M13.6,53.3L12,54.7l1,1.1l1.6-1.4l0.5,0.6l-1.6,1.4l-0.1,0.1l-0.1,0l-0.1,0.1l-0.1,0l-0.1,0H13l-0.1-0.1
		l-0.1-0.1l-0.1-0.1l0-0.1l-1.1-1.3L11.4,55l-0.1-0.1l0-0.1l0-0.1l-0.1-0.1l0-0.1l0-0.1l0.1-0.1l0.1-0.1l0.1-0.1l1.6-1.4L13.6,53.3z
		 M6.4,44.5l0.2,0.6l0,0.1l0,0.1l0.1,0.1l0.1,0.1l0,0.1L7,45.7L7,45.8l0.1,0.1l0.1,0l0.1,0h0.1h0.1l0.1,0l0.1,0l0.1,0l0.1,0L8,45.7
		l0.1-0.1l0.1-0.1l0-0.1v-0.1v-0.1v-0.1v-0.1l0-0.1l0-0.1L7.8,44L6.4,44.5z M5.5,44l2.7-1l0.6,1.7l0,0.1l0,0.1v0.1l0,0.1l0,0.1v0.1
		l0,0.1v0.1v0.1v0.1v0.1v0.1l0,0.1l0,0.1l0,0.1l0,0.1l-0.1,0.1l-0.1,0.1l-0.1,0.1l-0.1,0.1l-0.1,0.1l-0.2,0.1L8,46.6l-0.1,0l-0.1,0
		H7.7l-0.1,0H7.5H7.4H7.3H7.2H7.2l-0.1,0l-0.1,0l-0.1,0l-0.1,0l-0.1,0l-0.1-0.1l-0.1-0.1l-0.1-0.1l-0.1-0.1l-0.1-0.1l0-0.1L6.2,46
		l0-0.1l-0.1-0.1l0-0.1L6,45.6l0-0.1L5.5,44z M8.6,46.5L8.6,46.5l0.2-0.1l0.1,0l0.1,0l0.1,0l0.1,0l0.1,0l0.1,0.1l0.1,0.1l0.1,0.1
		l0.1,0.1l0.9,1.7l0,0.1l0,0.1l0,0.1l0,0.1V49v0.1v0.1l-0.1,0.1l-0.1,0.1l-0.1,0l-0.1,0.1l-0.1,0L9,50.2l-0.1,0.1l-0.1,0l-0.1,0
		l-0.1,0H8.5H8.4l-0.1-0.1l-0.1,0l-0.1-0.1L8.1,50L8,49.9L8,49.9l-0.9-1.7l0-0.1L7,48l0-0.1v-0.1l0-0.1v-0.1v-0.1l0-0.1l0-0.1
		l0.1-0.1l0.1-0.1l0.1-0.1l0.1-0.1L8.6,46.5z M7.7,47.9l0.8,1.6l1.3-0.7L9,47.2L7.7,47.9z M12.3,49.6l0.3,0.4l-0.1,0.1l-0.1,0.1
		l0,0.1v0.1l0,0.1l0.1,0.1l0,0.1l0.1,0.1l0.1,0h0.1l0.1,0l0.1-0.1l0.3,0.4l-0.2,0.1l-0.1,0l-0.1,0l-0.1,0l-0.1,0h-0.1h-0.1h-0.1
		l-0.1,0l-0.1,0l-0.1-0.1L12.2,51L12.1,51l0-0.1l0-0.1l0-0.1l-0.1-0.1l0-0.1l0-0.1v-0.1l0-0.1v-0.1l0-0.1v-0.1l0.1-0.1l0.1-0.1
		l0-0.1l0.1-0.1L12.3,49.6z M11.8,52l-0.9-1.4l-1.2,0.8l0.9,1.4l0.3-0.2l-0.5-0.8l0.5-0.4l1,1.5L11,53.4L11,53.5l-0.1,0l-0.1,0.1
		l-0.1,0l-0.1,0h-0.1l-0.1,0l-0.1-0.1l-0.1-0.1l-0.1-0.1l0-0.1l-1-1.5L9,51.6l-0.1-0.1l0-0.1l0-0.1l0-0.1l0-0.1l0-0.1l0.1-0.1
		L9,50.8l0.1-0.1l0.1,0l1.1-0.8l0.1-0.1l0.1,0l0.1-0.1l0.1,0l0.1,0l0.1,0l0.1,0l0.1,0.1l0.1,0.1l0.1,0.1l0,0.1l1,1.5l0,0.1l0,0.1
		l0.1,0.1l0,0.1l0,0.1v0.1v0.1l-0.1,0.1l-0.1,0.1l-0.1,0l-0.1,0.1l-0.1,0.1l-0.6-0.6L11.8,52z M16.7,58.5l0.6,0.5l0.1-0.8L16.7,58.5
		z M14.8,58.5l3-1.3l0.6,0.4l-0.4,3.2l-0.7-0.6l0.1-0.6L16,58.8L15.4,59L14.8,58.5z M18.1,61l1.5-2.4l0.7,0.4l-0.5,0.8l1.6-0.2
		l1.1,0.6l-2.3,0.2l1,2.4l-1.1-0.7l-0.7-1.7l-0.6,0.9L18.1,61z M22.5,62.6l0.6,0.3l0.1,0l0.1,0l0.1,0.1l0.1,0.1h0.1l0.1,0h0.1h0.1
		h0.1l0.1,0l0.1-0.1l0.1-0.1l0-0.1l0.1-0.1l0.1-0.1l0-0.1l0-0.1l0-0.1v-0.1v-0.1l-0.1-0.1l0-0.1l-0.1-0.1l-0.1-0.1l-0.1,0l-0.1,0
		l-0.1-0.1L23,61.3L22.5,62.6z M21.4,63l1.1-2.6l1.7,0.7l0.1,0l0.1,0.1l0.1,0l0.1,0.1l0.1,0l0.1,0.1l0.1,0.1l0.1,0.1l0,0.1l0.1,0.1
		l0,0.1l0.1,0.1l0,0.1v0.1l0,0.1v0.1v0.1v0.1v0.1l0,0.1l0,0.1l0,0.1l0,0.1l0,0.1l-0.1,0.1l0,0.1l0,0.1l-0.1,0.1l0,0.1l-0.1,0
		l-0.1,0.1l-0.1,0.1l-0.1,0l-0.1,0.1l-0.1,0l-0.1,0.1l-0.1,0h-0.1l-0.1,0H24l-0.1,0l-0.1,0h-0.1l-0.1,0l-0.1,0l-0.1,0l-0.1,0l-0.1,0
		l-0.1-0.1l-0.1,0l-0.1,0L21.4,63z M24.9,64.4l0.7-2.7l2.8,0.8l-0.2,0.6l-2-0.5l-0.1,0.4l1.1,0.3l-0.2,0.6L26,63.5l-0.1,0.4l2,0.6
		l-0.2,0.7L24.9,64.4z M29.4,63.8L29.4,63.8L29,65.4l-0.7-0.2l0.6-2.8l0.5,0.1l1.5,1.9l0.1,0.1l0.1-0.1l0.3-1.5l0.7,0.2l-0.6,2.8
		L31,65.8L29.4,63.8z M32.6,63l0.1-0.8l0.7,0.1l-0.1,0.8L32.6,63z M32.3,66l0.3-2.8l0.8,0.1l-0.3,2.8L32.3,66z M33.4,66.1v-0.4
		l1.7-1.7h-1.5v-0.7h2.8v0.4l-1.7,1.7l1.7,0v0.7H33.4z M40,62.6l-0.7,0.2L39.1,62l0.7-0.1L40,62.6z M40.8,62.4l-0.7,0.1L40,61.8
		l0.7-0.2L40.8,62.4z M40.9,62.6l0.8-0.2l0.4,2.1v0.1l0,0.1v0.1v0.1l0,0.1l0,0.1L42,65.2l-0.1,0.1l-0.1,0l-0.1,0.1l-0.1,0l-0.1,0
		h-0.1l-1.6,0.3l-0.1,0h-0.1l-0.1,0h-0.1l-0.1,0h-0.1l-0.1,0l-0.1-0.1l-0.1-0.1l0-0.1l0-0.1l0-0.1l0-0.1l-0.4-2.1l0.8-0.2l0.4,2.1
		l1.5-0.3L40.9,62.6z M45,63.1l-0.5-1.5l0.7-0.2l0.8,2.7l-0.5,0.2l-2.3-1v0.1l0.5,1.5l-0.7,0.2l-0.8-2.7l0.5-0.2l2.2,0.9L45,63.1
		L45,63.1L45,63.1z M46.7,63.8l-1.1-2.6l0.7-0.3l0.1,0.1l0.6-0.3l1.7,1.1l0-2l0.6-0.3l2.4-1.6l0.4,0.5l-1.7,1.1l0.2,0.3l1-0.7
		l0.4,0.6l-1,0.7l0.3,0.4l1.7-1.1l0.4,0.6L51,61.8l-1.5-2.2l-0.1,3l-0.5,0.3l-2.4-1.6l0.9,2.2L46.7,63.8z M45.6,61l-0.3-0.7l0.7-0.3
		l0.3,0.7L45.6,61z M54,56.8l-1,0.8l0.3,0.4l1-0.8l0.1-0.1l0-0.1l-0.2-0.3l-0.1,0L54,56.8L54,56.8z M53.8,59.8l-1.8-2.2l1.8-1.5
		l0.1-0.1l0.1,0l0.1-0.1h0.1h0.1l0.1,0l0.1,0.1l0.1,0.1l0.5,0.5l0.1,0.1l0,0.1l0,0.1V57l0,0.1v0.1l-0.1,0.1l-0.1,0.1L55,57.5
		l-0.1,0.1l1.6,0l-0.9,0.8l-1.4-0.1l-0.3,0.3l0.6,0.8L53.8,59.8z M56.4,54.3l-1,1.1l0.3,0.3l1-1.1l0-0.1l0.1-0.1l0.1-0.1l0.1-0.1
		l0.1,0l0.1,0l0.1,0l0.1,0l0.1,0.1l0.1,0.1l0.3,0.3l0.1,0.1l0.1,0.1l0.1,0.1l0.1,0.1l0,0.1l0,0.1l-0.1,0.1l0,0.1l-0.1,0.1l0,0.1
		L56.9,57l0,0.1l-0.1,0.1l-0.1,0l-0.1,0.1l-0.1,0h-0.1l-0.1,0l-0.1-0.1L56,57.1L55.9,57l-0.1-0.1l0.4-0.7l0.2,0.2l1.1-1.2L57.3,55
		l-1,1.1l-0.1,0.1l-0.1,0L56,56.3l-0.1,0.1l-0.1,0l-0.1,0h-0.1l-0.1,0l-0.1-0.1l-0.1-0.1l-0.1,0L55,56l-0.1,0l-0.1-0.1l-0.1-0.1
		l0-0.1l0-0.1v-0.1l0-0.1l0-0.1l0.1-0.1l0.1-0.1l0.1-0.1l1-1.1l0.1-0.1l0.1-0.1l0.1-0.1l0.1,0l0.1,0l0.1,0l0.1,0l0.1,0.1l0.1,0.1
		l0.1,0.1l-0.4,0.7L56.4,54.3z M56.7,52.8l-0.6-0.5l0.5-0.6l0.6,0.5L56.7,52.8z M59,54.8L56.8,53l0.5-0.6l2.2,1.8L59,54.8z
		 M59.1,50.9l1.8,1.2l-0.5,0.7l-1.8-1.2l-0.7,1l-0.6-0.4l1.8-2.7l0.6,0.4L59.1,50.9z M61.7,50.8l-2.5-1.4l1.4-2.5l0.6,0.3l-1,1.8
		l0.3,0.2l0.6-1l0.6,0.3l-0.6,1.1l0.4,0.2l1-1.8l0.6,0.3L61.7,50.8z M62.1,45.2l-0.6,1.4l0.3,0.2l0.6-1.4l0.1-0.1l0-0.1l0.1-0.1
		l0.1-0.1l0.1-0.1l0.1,0l0.1-0.1l0.1,0H63l0.1,0l0.1,0l0.1,0l0.1,0l0.3,0.1l0.1,0.1l0.1,0l0.1,0.1l0.1,0.1l0.1,0.1l0.1,0.1l0,0.1
		v0.1l0,0.1v0.1l0,0.1l0,0.1L64.1,46l-0.6,1.5l0,0.1l0,0.1l-0.1,0.1l-0.1,0.1l-0.1,0.1L63,48l-0.1,0h-0.1l-0.1,0l-0.1,0l-0.1,0
		l-0.1,0l-0.1-0.1l0.1-0.7l0.3,0.1l0.6-1.5l-0.4-0.2l-0.6,1.4L62.4,47l0,0.1l-0.1,0.1l-0.1,0.1l-0.1,0.1l-0.1,0H62h-0.1h-0.1l-0.1,0
		l-0.1,0l-0.1-0.1l-0.3-0.1l-0.1,0l-0.1,0L61,47.1l-0.1,0L60.9,47l-0.1-0.1l0-0.1v-0.1v-0.1l0-0.1l0-0.1l0-0.1l0-0.1l0.6-1.4l0-0.1
		l0.1-0.1l0-0.1l0.1-0.1l0.1-0.1l0.1-0.1l0.1,0h0.1h0.1l0.1,0l0.2,0.1l0.1,0l-0.1,0.8L62.1,45.2z M64.6,44.7l-2.7-0.8l0.2-0.8
		l2.7,0.8L64.6,44.7z M61.7,43.8l-0.8-0.2l0.2-0.7l0.8,0.2L61.7,43.8z M6.5,40.7h0.1l0.1,0.1l0.1,0.1l0.1,0.1L7,40.9L7,41l0,0.1v0.1
		v0.1l0,0.1L7,41.7l-0.1,0.1l-0.1,0.1l-0.1,0.1l-0.1,0l-0.1,0l-0.1,0l-0.1,0l-0.1-0.1L6,41.8l-0.1-0.1l-0.1-0.1l0-0.1l0-0.1l0-0.1
		l0-0.1l0.1-0.1L6,40.8l0.1-0.1l0.1-0.1l0.1-0.1H6.5z M63.7,40.7h0.1l0.1,0.1l0.1,0.1l0.1,0.1l0.1,0.1l0.1,0.1l0,0.1l0,0.1l0,0.1
		l0,0.1l-0.1,0.1l-0.1,0.1L64,41.8l-0.1,0.1l-0.1,0l-0.1,0l-0.1,0l-0.1,0l-0.1-0.1l-0.1-0.1l-0.1-0.1l-0.1-0.1l0-0.1v-0.1v-0.1
		l0-0.1l0.1-0.1l0.1-0.1l0.1-0.1l0.1-0.1l0.1-0.1H63.7z M63.1,35.4l0-0.8l2.2,0v-1.2L63,33.5l0-0.8l2.8-0.2l0,0.8l0.1,2.7v0.2v0.3
		L65.8,37l-1,0.8l0.9,0.9l-0.1,1l-1.5-1.6L62.9,38l0.1-0.8l1.2,0.1l1-0.8v-1.1L63.1,35.4z M45.7,9.2l-2.8-0.9l0.9-2.7l2.8,0.9
		l-0.2,0.6l-2-0.7l-0.1,0.4l1.1,0.4l-0.2,0.6l-1.1-0.4l-0.2,0.4l2,0.7l-0.1,0.2l2.3-1.5l0.6,0.3l0.2,3l1.5-2.2l0.5,0.3l0.7,2.3
		l0,0.1l0.1-0.1l0.8-1.3l0.6,0.4l-1.5,2.4l-0.5-0.3l-0.8-2.5l-0.1,0.1l-0.8,1.3L49,10.8l-0.8-0.4l0-0.7l-1.4-0.7l-0.5,0.4L45.7,9.2z
		 M34.1,6.3h-0.4v1h-0.8l-1.1,0.2l-1.2-0.8l-0.4,0.1l0.2,1l-0.8,0.1L29,5l2.3-0.4h0.1l0.1,0h0.1l0.1,0h0.1l0.1,0l0.1,0.1L32,4.8
		l0,0.1l0.1,0.1l0.1,0.7v0.1v0.1V6l0,0.1l-0.1,0.1l-0.1,0.1l-0.1,0l-0.1,0.1l-0.1,0l-0.1,0h-0.1l1.2,0.7V4.4l2.3,0l0.1,0h0.1h0.1
		l0.1,0l0.1,0l0.1,0.1l0.1,0.1l0.1,0.1l0,0.1v0.1V5l0,0.7l0,0.1v0.1l0,0.1l-0.1,0.1l-0.1,0.1l-0.1,0l-0.1,0.1l-0.1,0h-0.1l0.6,0.5
		l1.6-2.3l0.7,0.1l1.3,2.8L40,4.7l0.5,0.1l1.4,2L42,6.9l0.1-0.1V6.7l0.4-1.4l0.7,0.2l-0.7,2.8L42,8.1l-1.5-2l-0.1,0.1L40,7.6
		l-0.6-0.2l-0.9,0l-0.3-0.6l-1.5-0.1l-0.4,0.6l-0.1,0h-1.1L34.1,6.3z M4.8,39.5l-0.4-2.9l0.7-0.1l0.3,2.1l0.4-0.1l-0.2-1.2l0.6-0.1
		l0.1,1.2l0.4-0.1l-0.3-2.1l0.2,0l-2.3-1.4l0-0.7l2.5-1.3l-0.1,0H6.7l-0.1,0H6.5l-0.1-0.8l0.3,0l0.2-1.6l-0.4-0.1L6.3,32v0.1l0,0.1
		l0,0.1l0,0.1l0,0.1l-0.1,0.1L6,32.6l-0.1,0H5.8l-0.1,0l-0.1,0H5.5l-0.3,0l-0.1,0H5.1l-0.1,0l-0.1,0l-0.1,0l-0.1-0.1l-0.1-0.1l0-0.1
		l-0.1-0.1v-0.1V32v-0.1l0-0.1l0.2-1.5v-0.1l0-0.1v-0.1l0-0.1l0.1-0.1L5,29.8l0.1-0.1l0.1,0l0.1,0h0.1h0.1h0.1l0.2,0l0.1,0.7l-0.3,0
		l-0.2,1.5l0.3,0l0.2-1.5l0-0.1l0-0.1v-0.1l0-0.1L5.9,30L6,29.9l0.1,0l0.1-0.1l0.1,0h0.1h0.1h0.1h0.1l0.4,0l0.1,0h0.1l0.1,0l0.1,0
		L7.4,30L7.5,30l0.1,0.1l0,0.1v0.1v0.1v0.1v0.1l-0.2,1.6v0.1l0,0.1l0,0.1l-0.1,0.1l-0.1,0.1l0.1,0l0,0.9l-0.6,0.3l-0.1,1.5l0.6,0.3
		l0,0.5l0.4,2.9L4.8,39.5z M65,31.2l-0.2-1.5l-0.4,0.1l0.2,1.5l0,0.1v0.1v0.1v0.1v0.1l0,0.1l-0.1,0.1L64.5,32l-0.1,0.1l-0.1,0
		l-0.1,0h-0.1l-0.1,0l-0.4,0.1h-0.1l-0.1,0h-0.1l-0.1,0h-0.1l-0.1,0l-0.1-0.1L63,32l0-0.1l-0.1-0.1l0-0.1l0-0.1l0-0.1L62.6,30v-0.1
		l0-0.1v-0.1l0-0.1v-0.1l0-0.1l0.1-0.1l0.1-0.1l0.1-0.1l0.1,0l0.1,0h0.1l0.1,0l0.2,0l0.3,0.7l-0.3,0.1l0.3,1.6l0.4-0.1l-0.2-1.5
		v-0.1l0-0.1v-0.1l0-0.1v-0.1l0-0.1l0-0.1l0.1-0.1l0.1-0.1l0.1,0l0.1,0h0.1l0.1,0l0.3-0.1h0.1h0.1h0.1h0.1l0.1,0l0.1,0l0.1,0.1
		l0.1,0.1l0.1,0.1l0,0.1l0,0.1l0,0.1l0.2,1.5v0.1l0,0.1v0.1v0.1l0,0.1l0,0.1l-0.1,0.1l-0.1,0.1l-0.1,0l-0.1,0.1l-0.1,0h-0.1L65,32
		l-0.3-0.7L65,31.2z M61.6,25.9l2.7-0.7l0.6,2.3l0,0.1v0.1l0,0.1v0.1l0,0.1l0,0.1l-0.1,0.1l-0.1,0.1l-0.1,0.1l-0.1,0l-0.7,0.1
		l-0.1,0l-0.1,0l-0.1,0l-0.1,0l-0.1,0l-0.1-0.1l-0.1-0.1l0-0.1l0-0.1l-0.7,1.3l-0.3-1.1l0.7-1.3l-0.1-0.4l-0.9,0.3L61.6,25.9z
		 M64.2,27.4l-0.3-1.2l-0.5,0.1l0.3,1.2l0,0.1l0,0.1h0.1l0.3-0.1l0.1,0v-0.1L64.2,27.4z M60.4,23L63,22l1.1,2.7l-0.6,0.3L62.7,23
		l-0.3,0.2l0.5,1.1l-0.6,0.3l-0.5-1.1l-0.4,0.2l0.8,2l-0.6,0.3L60.4,23z M59.5,21.4l1.7-2.8l0.4,0.8l-1.1,1.7h2l0.4,0.7l-3.2,0
		L59.5,21.4z M58.3,19.6l2.4-1.6l0.5,0.7l-2.3,1.6L58.3,19.6z M58.7,17.8L58.7,17.8l1.2-0.9l0.5,0.6l-2.3,1.7l-0.3-0.4l0.1-2.6
		l-0.1,0l-1.3,0.9l-0.5-0.6l2.3-1.7l0.3,0.5L58.7,17.8L58.7,17.8L58.7,17.8z M56.1,12.6l-1.5,1.5l1.1,1.1l1.5-1.5l0.6,0.6l-1.5,1.5
		l-0.1,0.1l-0.1,0.1L56,16L55.8,16h-0.1l-0.1,0L55.5,16l-0.1-0.1l-0.1-0.1l-1.2-1.2l-0.1,0l0-0.1l-0.1-0.1l-0.1-0.1l-0.1-0.1V14
		l0-0.1l0.1-0.1l0.1-0.1l0.1-0.1l1.5-1.5L56.1,12.6z M47.4,8.6L48.1,9l0-0.8L47.4,8.6z M37.1,6.1l0.8,0.1l-0.3-0.8L37.1,6.1z
		 M34.9,5.1l-1.3,0v0.5h1.3H35l0.1,0V5.5V5.2V5.1L34.9,5.1L34.9,5.1z M31.2,5.3l-1.2,0.2L30,6.1l1.2-0.2l0.1,0l0.1,0V5.7l0-0.3
		l0-0.1H31.2L31.2,5.3z M26.4,8.6l-0.8-2.7l2.8-0.8l0.2,0.6l-2,0.5l0.1,0.4l1.2-0.3L28.1,7l-1.2,0.3L27,7.7l2-0.6l0.2,0.7L26.4,8.6z
		 M24.7,7l0.7,2l-0.8,0.3l-0.7-2l-1.1,0.4L22.5,7l3-1.1l0.3,0.6L24.7,7z M23,10l-1.3-2.5l0.7-0.4l1.3,2.5L23,10z M19.8,11.8
		l-1.5-2.4l1.5-0.9l0.1-0.1l0.1-0.1l0.1,0l0.1-0.1l0.1,0l0.1,0l0.1,0l0.1,0l0.1,0l0.1,0h0.1h0.1h0.1h0.1l0.2,0l0.1,0.1l0.1,0
		l0.1,0.1l0.1,0.1l0.1,0.1l0.1,0.1l0.1,0.1l0.1,0.1L22,9L22,9l0,0.1l0.1,0.1v0.1l0,0.1v0.1l0,0.1v0.1l0,0.1v0.1l0,0.1l0,0.1l0,0.1
		l0,0.1l-0.1,0.1l-0.1,0.1l-0.1,0.1l-0.1,0.1l-0.1,0.1l-0.1,0.1l-0.1,0.1l-0.1,0l-0.1,0.1L21.2,11L19.8,11.8z M20.1,10.8l0.6-0.4
		l0.1-0.1l0.1-0.1l0.1-0.1l0.1-0.1l0-0.1l0.1-0.1l0.1-0.1l0-0.1V9.6l0-0.1l0-0.1l0-0.1l0-0.1l-0.1-0.1l-0.1-0.1L21,9l-0.1-0.1
		l-0.1-0.1h-0.1h-0.1h-0.1l-0.1,0L20.3,9l-0.1,0L20.2,9l-0.8,0.5L20.1,10.8z M17.2,13.7l-1.7-2.2l2.3-1.8l0.4,0.5l-1.6,1.3l0.2,0.3
		l0.9-0.7l0.4,0.5l-0.9,0.7l0.3,0.4l1.6-1.3l0.4,0.6L17.2,13.7z M12.8,13.9l1.9,0.3l-0.2-1.9l0.5-0.4l2,2.1l-0.6,0.5l-1.1-1.1
		l0.2,1.6L15.3,15l-1.6-0.3l1.1,1.2l-0.5,0.5l-1.9-2.1L12.8,13.9z M11.3,18.3L11.3,18.3l-1.4-0.8l0.4-0.6l2.4,1.5l-0.3,0.5L10,19.6
		l0,0.1l1.3,0.8L11,21.1l-0.1-0.1l-0.5,1l-1.4,0.5L8.9,23l0.9,0.4l-0.4,0.7l-2.6-1.2l1-2.1L8,20.6l0.1-0.1l0.1-0.1l0.1-0.1l0.1-0.1
		h0.1l0.1,0l0.1,0l0.6,0.3l0.1,0l0.1,0.1l0.1,0.1l0,0.1l0,0.1v0.1v0.1l-0.1,0.1l0,0.1l0,0.1l1.3-0.6l-2.3-1.4l0.3-0.5L11.3,18.3
		L11.3,18.3L11.3,18.3z M8.4,21.3l-0.6,1.2l0.5,0.2l0.5-1.1l0.1-0.1v-0.1l-0.1-0.1l-0.3-0.1l-0.1,0L8.4,21.3L8.4,21.3z M8.4,27.1
		l-2.7-0.9l0.9-2.8l0.6,0.2l-0.6,2l0.4,0.1l0.4-1.1l0.6,0.2l-0.4,1.1L8,26.1l0.7-2l0.7,0.2L8.4,27.1z M6,27.7l2.1,0.5L8,28.9
		l-2.1-0.5l-0.3,1.2l-0.7-0.1l0.7-3.2l0.7,0.2L6,27.7z M6,35.1l0-0.8l-0.8,0.4L6,35.1z"/>
</g>
</svg>
